<?xml version="1.0" encoding="utf-8"?>
<!-- Generator: Adobe Illustrator 19.1.0, SVG Export Plug-In . SVG Version: 6.00 Build 0)  -->
<svg version="1.1" xmlns="http://www.w3.org/2000/svg" xmlns:xlink="http://www.w3.org/1999/xlink" x="0px" y="0px"
	 viewBox="0 0 451 88.5" style="enable-background:new 0 0 451 88.5;" xml:space="preserve">
<style type="text/css">
	.st2{fill:#EC1B4F;}
	.st3{fill:#231F20;}
</style>
<g id="Logo">
	<g>
		<g>
			<path class="st2" d="M25.9,37h11.8c0.4,0,0.7,0.3,0.7,0.7v34.7c0,0.4-0.3,0.7-0.7,0.7H25.9c-0.4,0-0.7-0.3-0.7-0.7V37.7
				C25.2,37.3,25.5,37,25.9,37z"/>
		</g>
		<g>
			<path class="st2" d="M25.9,15.1h11.8c0.4,0,0.7,0.3,0.7,0.7v4.2c0,0.4-0.3,0.7-0.7,0.7H25.9c-0.4,0-0.7-0.3-0.7-0.7v-4.2
				C25.2,15.5,25.5,15.1,25.9,15.1z"/>
		</g>
	</g>
	<g>
		<g>
			<path class="st2" d="M68.2,51.3H56.5c-0.4,0-0.7-0.3-0.7-0.7V15.9c0-0.4,0.3-0.7,0.7-0.7h11.8c0.4,0,0.7,0.3,0.7,0.7v34.7
				C68.9,51,68.6,51.3,68.2,51.3z"/>
		</g>
		<g>
			<path class="st2" d="M68.2,73.2H56.5c-0.4,0-0.7-0.3-0.7-0.7v-4.2c0-0.4,0.3-0.7,0.7-0.7h11.8c0.4,0,0.7,0.3,0.7,0.7v4.2
				C68.9,72.9,68.6,73.2,68.2,73.2z"/>
		</g>
	</g>
	<g>
		<g>
			<path class="st2" d="M39.9,65.3V53.6c0-0.4,0.3-0.7,0.7-0.7h34.7c0.4,0,0.7,0.3,0.7,0.7v11.8c0,0.4-0.3,0.7-0.7,0.7H40.6
				C40.2,66,39.9,65.7,39.9,65.3z"/>
		</g>
		<g>
			<path class="st2" d="M18,65.3V53.6c0-0.4,0.3-0.7,0.7-0.7H23c0.4,0,0.7,0.3,0.7,0.7v11.8c0,0.4-0.3,0.7-0.7,0.7h-4.2
				C18.4,66,18,65.7,18,65.3z"/>
		</g>
	</g>
	<g>
		<g>
			<path class="st2" d="M54.2,23v11.8c0,0.4-0.3,0.7-0.7,0.7H18.8c-0.4,0-0.7-0.3-0.7-0.7V23c0-0.4,0.3-0.7,0.7-0.7h34.7
				C53.9,22.3,54.2,22.6,54.2,23z"/>
		</g>
		<g>
			<path class="st2" d="M76.1,23v11.8c0,0.4-0.3,0.7-0.7,0.7h-4.2c-0.4,0-0.7-0.3-0.7-0.7V23c0-0.4,0.3-0.7,0.7-0.7h4.2
				C75.8,22.3,76.1,22.6,76.1,23z"/>
		</g>
	</g>
</g>
<g id="Text">
	<path class="st3" d="M385.9,15.7c0-0.8,0.8-1.5,1.6-1.5h1.2c0.8,0,1.4,0.6,2.1,1.2l32,30.8h0.1V16.7c0-0.8,0.7-1.6,1.6-1.6h10
		c0.8,0,1.6,0.7,1.6,1.6v56.1c0,1-0.8,1.5-1.6,1.5h-0.8c-0.8,0-1.4-0.3-2.1-0.9l-32.4-32.6H399v31.1c0,0.8-0.7,1.6-1.6,1.6h-9.9
		c-0.8,0-1.6-0.8-1.6-1.6L385.9,15.7z"/>
	<path class="st3" d="M106.6,27.3H94.7c-0.9,0-1.6-0.8-1.6-1.6v-9.1c0-0.8,0.7-1.6,1.6-1.6h37c0.9,0,1.6,0.7,1.6,1.6v9.1
		c0,0.8-0.7,1.6-1.6,1.6h-11.9v44.5c0,0.8-0.8,1.6-1.6,1.6h-10c-0.8,0-1.6-0.8-1.6-1.6V27.3z"/>
	<path class="st3" d="M150.3,16.7c0-0.8,0.7-1.6,1.6-1.6h34.5c0.9,0,1.6,0.7,1.6,1.6v9.1c0,0.8-0.7,1.6-1.6,1.6h-23.1v10.3h19
		c0.8,0,1.6,0.7,1.6,1.6v9.1c0,0.9-0.8,1.6-1.6,1.6h-19v11.2h23.1c0.9,0,1.6,0.8,1.6,1.6v9.1c0,0.8-0.7,1.6-1.6,1.6h-34.5
		c-0.9,0-1.6-0.8-1.6-1.6V16.7z"/>
	<path class="st3" d="M206.8,16.7c0-0.8,0.7-1.6,1.6-1.6h34.5c0.9,0,1.6,0.7,1.6,1.6v9.1c0,0.8-0.7,1.6-1.6,1.6h-23.1v12h19
		c0.8,0,1.6,0.8,1.6,1.6V50c0,0.8-0.8,1.6-1.6,1.6h-19v20.2c0,0.8-0.8,1.6-1.6,1.6h-9.8c-0.9,0-1.6-0.8-1.6-1.6V16.7z"/>
	<path class="st3" d="M261.5,16.7c0-0.8,0.7-1.6,1.6-1.6h9.9c0.8,0,1.6,0.7,1.6,1.6v44.5h19.8c0.9,0,1.6,0.8,1.6,1.6v9.1
		c0,0.8-0.7,1.6-1.6,1.6h-31.3c-0.9,0-1.6-0.8-1.6-1.6V16.7z"/>
	<path class="st3" d="M337.8,14.3c16.7,0,30,13.4,30,30.1s-13.3,29.9-30,29.9c-16.7,0-29.9-13.2-29.9-29.9S321.1,14.3,337.8,14.3z
		 M337.8,60.9c9.2,0,16.7-7.5,16.7-16.6c0-9.2-7.5-16.8-16.7-16.8c-9.1,0-16.6,7.6-16.6,16.8C321.2,53.4,328.7,60.9,337.8,60.9z"/>
</g>
</svg>
